<svg width="328" height="40" viewBox="0 0 328 40" fill="none" xmlns="http://www.w3.org/2000/svg">
<path d="M0.00459221 26.6591C0.00147015 26.0945 0.000470654 25.5048 0.000150675 24.8885L0.500151 24.8883C0.5 24.5982 0.5 24.3022 0.5 24V23H0V21H0.5V19H0V17H0.5V15H0V13H0.5V11H0V9H0.5V7H0V5H0.5V3H0V1H0.5V0.5H0.999999V0H3V0.5H5V0H6.99999V0.5H8.99999V0H11V0.5H13V0H15V0.5H17V0H19V0.5H21V0H23V0.5H25V0H27V0.5H29V0H31V0.5H33V0H35V0.5H37V0H39V0.5H41V0H43V0.5H45V0H47V0.5H49V0H51V0.5H53V0H55V0.5H57V0H59V0.5H61V0H63V0.5H65V0H67V0.5H69V0H71V0.5H73V0H75V0.5H77V0H79V0.5H81V0H83V0.5H85V0H87V0.5H89V0H91V0.5H93V0H95V0.5H97V0H99V0.5H101V0H103V0.5H105V0H107V0.5H109V0H111V0.5H113V0H115V0.5H117V0H119V0.5H121V0H123V0.5H125V0H127V0.5H129V0H131V0.5H133V0H135V0.5H137V0H139V0.5H141V0H143V0.5H145V0H147V0.5H149V0H151V0.5H153V0H155V0.5H157V0H159V0.5H161V0H163V0.5H165V0H167V0.5H169V0H171V0.5H173V0H175V0.5H177V0H179V0.5H181V0H183V0.5H185V0H187V0.5H189V0H191V0.5H193V0H195V0.5H197V0H199V0.5H201V0H203V0.5H205V0H207V0.5H209V0H211V0.5H213V0H215V0.5H217V0H219V0.5H221V0H223V0.5H225V0H227V0.5H229V0H231V0.5H233V0H235V0.5H237V0H239V0.5H241V0H243V0.5H245V0H247V0.5H249V0H251V0.5H253V0H255V0.5H257V0H259V0.5H261V0H263V0.5H265V0H267V0.5H269V0H271V0.5H273V0H275V0.5H277V0H279V0.5H281V0H283V0.5H285V0H287V0.5H289V0H291V0.5H293V0H295V0.5H297V0H299V0.5H301V0H303V0.5H305V0H307V0.5H309V0H311V0.5H313V0H315V0.5H317V0H319V0.5H321V0H323V0.5H325V0H327V0.5H327.5V1H328V3H327.5V5H328V7H327.5V9H328V11H327.5V13H328V15H327.5V17H328V19H327.5V21H328V23H327.5V24V24.2625C327.5 24.4741 327.5 24.6827 327.5 24.8883L328 24.8885C328 25.5048 327.999 26.0945 327.995 26.6591L327.495 26.6563C327.492 27.2756 327.486 27.8635 327.476 28.4223L327.975 28.4316C327.964 29.0574 327.947 29.6477 327.921 30.2053L327.422 30.1825C327.393 30.8057 327.355 31.3847 327.302 31.924L327.8 31.9724C327.738 32.606 327.658 33.1892 327.552 33.728L327.061 33.632C326.944 34.2347 326.795 34.771 326.61 35.253L327.076 35.4327C326.854 36.0103 326.578 36.5238 326.235 36.9863L325.834 36.6888C325.673 36.905 325.497 37.1092 325.303 37.3033C325.109 37.4974 324.905 37.6735 324.689 37.8335L324.986 38.2354C324.524 38.5778 324.01 38.8537 323.433 39.0761L323.253 38.6095C322.771 38.7952 322.235 38.9436 321.632 39.0614L321.728 39.5521C321.189 39.6575 320.606 39.7381 319.972 39.7997L319.924 39.3021C319.385 39.3545 318.806 39.3932 318.183 39.4216L318.205 39.9211C317.648 39.9466 317.057 39.9638 316.432 39.9755L316.422 39.4756C315.863 39.486 315.276 39.492 314.656 39.4954L314.659 39.9954C314.095 39.9985 313.505 39.9995 312.889 39.9998L312.888 39.4999C312.598 39.5 312.302 39.5 312 39.5H311V40H309V39.5H307V40H305V39.5H303V40H301V39.5H299V40H297V39.5H295V40H293V39.5H291V40H289V39.5H287V40H285V39.5H283V40H281V39.5H279V40H277V39.5H275V40H273V39.5H271V40H269V39.5H267V40H265V39.5H263V40H261V39.5H259V40H257V39.5H255V40H253V39.5H251V40H249V39.5H247V40H245V39.5H243V40H241V39.5H239V40H237V39.5H235V40H233V39.5H231V40H229V39.5H227V40H225V39.5H223V40H221V39.5H219V40H217V39.5H215V40H213V39.5H211V40H209V39.5H207V40H205V39.5H203V40H201V39.5H199V40H197V39.5H195V40H193V39.5H191V40H189V39.5H187V40H185V39.5H183V40H181V39.5H179V40H177V39.5H175V40H173V39.5H171V40H169V39.5H167V40H165V39.5H163V40H161V39.5H159V40H157V39.5H155V40H153V39.5H151V40H149V39.5H147V40H145V39.5H143V40H141V39.5H139V40H137V39.5H135V40H133V39.5H131V40H129V39.5H127V40H125V39.5H123V40H121V39.5H119V40H117V39.5H115V40H113V39.5H111V40H109V39.5H107V40H105V39.5H103V40H101V39.5H99V40H97V39.5H95V40H93V39.5H91V40H89V39.5H87V40H85V39.5H83V40H81V39.5H79V40H77V39.5H75V40H73V39.5H71V40H69V39.5H67V40H65V39.5H63V40H61V39.5H59V40H57V39.5H55V40H53V39.5H51V40H49V39.5H47V40H45V39.5H43V40H41V39.5H39V40H37V39.5H35V40H33V39.5H31V40H29V39.5H27V40H25V39.5H23V40H21V39.5H19V40H17V39.5H16C15.6978 39.5 15.4018 39.5 15.1117 39.4999L15.1115 39.9999C14.4952 39.9995 13.9055 39.9985 13.3409 39.9954L13.3437 39.4954C12.7244 39.492 12.1365 39.486 11.5777 39.4756L11.5684 39.9755C10.9426 39.9638 10.3523 39.9466 9.79466 39.9211L9.81746 39.4216C9.19428 39.3932 8.61534 39.3545 8.07598 39.3021L8.02757 39.7997C7.39403 39.7381 6.81079 39.6575 6.27204 39.5521L6.36801 39.0614C5.76527 38.9436 5.22895 38.7951 4.74697 38.6095L4.56728 39.0761C3.98974 38.8537 3.47618 38.5778 3.01371 38.2354L3.31122 37.8335C3.09503 37.6735 2.89078 37.4974 2.6967 37.3033C2.50261 37.1092 2.32652 36.905 2.16647 36.6888L1.76462 36.9863C1.42223 36.5238 1.14628 36.0103 0.923865 35.4327L1.39046 35.253C1.20485 34.7711 1.05645 34.2347 0.938564 33.632L0.447862 33.728C0.34249 33.1892 0.26191 32.606 0.200288 31.9724L0.69794 31.924C0.645479 31.3847 0.606798 30.8057 0.578352 30.1825L0.0788721 30.2053C0.0534183 29.6477 0.036179 29.0574 0.0245032 28.4316L0.524416 28.4223C0.513989 27.8635 0.508009 27.2756 0.504585 26.6563L0.00459221 26.6591Z" fill="#E8F1FF" stroke="#A6C7FF" stroke-dasharray="2 2"/>
</svg>
